<?xml version="1.0" encoding="utf-8"?>
<!-- Generator: Adobe Illustrator 24.2.0, SVG Export Plug-In . SVG Version: 6.00 Build 0)  -->
<svg version="1.1" id="Ebene_1" xmlns="http://www.w3.org/2000/svg" xmlns:xlink="http://www.w3.org/1999/xlink" x="0px" y="0px"
	 viewBox="0 0 425.66 425.64" style="enable-background:new 0 0 425.66 425.64;" xml:space="preserve">
<style type="text/css">
	.st0{fill:#FFFFFF;}
</style>
<g>
	<path class="st0" d="M288.84,182.42c-36.66,0-70.15,11.02-95.12,29.75c-24.97,18.73-41.68,46-41.68,76.66
		c0,30.66,16.71,57.93,41.68,76.66c24.97,18.73,58.46,29.72,95.12,29.72c0.01,0,0.02,0,0.03,0c17.06-0.03,33.54-3.66,49.43-8.49
		l64.6,36.91c5.29,3.03,11.88,2.6,16.73-1.08c4.86-3.68,7.05-9.91,5.56-15.82l-16.92-67.79c10.52-15.22,17.32-32.23,17.37-50.09
		c0-0.01,0-0.02,0-0.03c0-30.66-16.71-57.93-41.68-76.66C358.99,193.44,325.5,182.42,288.84,182.42L288.84,182.42z M288.84,182.42"
		/>
	<path class="st0" d="M182.43,0C83.36,0,0.01,66.41,0.01,152.01c0,0.01,0,0.02,0,0.03c0.06,25.54,8.84,50.2,23.28,72.26L0.46,315.54
		c-1.56,6.24,0.98,12.8,6.34,16.36c5.36,3.56,12.38,3.36,17.53-0.5l65.91-49.46c28.13,13.82,59.56,22.08,92.19,22.09
		c99.07,0,182.42-66.41,182.42-152.01S281.5,0,182.43,0L182.43,0z M182.43,30.4c85.63,0,152.01,56.09,152.01,121.61
		c0,65.52-66.38,121.61-152.01,121.61c-31.28-0.01-61.79-7.81-87.2-22.09c-5.25-2.96-11.74-2.54-16.57,1.07l-38.3,28.74l13.78-55.07
		c1.11-4.41,0.18-9.08-2.52-12.74c-13.98-18.89-21.15-40.04-21.2-61.55C30.44,86.47,96.81,30.4,182.43,30.4L182.43,30.4z
		 M182.43,30.4"/>
</g>
</svg>
