<?xml version="1.0" encoding="utf-8"?>
<!-- Generator: Adobe Illustrator 24.2.0, SVG Export Plug-In . SVG Version: 6.00 Build 0)  -->
<svg version="1.1" id="Calque_1" xmlns="http://www.w3.org/2000/svg" xmlns:xlink="http://www.w3.org/1999/xlink" x="0px" y="0px"
	 viewBox="0 0 165.41 148.39" style="enable-background:new 0 0 165.41 148.39;" xml:space="preserve">
<style type="text/css">
	.st0{fill:#FFFFFF;}
</style>
<g>
	<path class="st0" d="M153.28,0h-0.3c-6.7,0-12.14,5.64-12.14,12.6V90.1h8.19v50.1c0,4.52,3.67,8.19,8.19,8.19
		c4.52,0,8.19-3.67,8.19-8.19V12.6C165.41,5.64,159.98,0,153.28,0z"/>
	<path class="st0" d="M126.13,3.05c0-1.68-1.36-3.05-3.05-3.05c-1.68,0-3.05,1.36-3.05,3.05V36.7h-4.1V3.05
		c0-1.68-1.36-3.05-3.05-3.05c-1.68,0-3.05,1.36-3.05,3.05V36.7h-4.1V3.05c0-1.68-1.36-3.05-3.05-3.05s-3.05,1.36-3.05,3.05V36.7
		h-4.1V3.05C95.57,1.36,94.2,0,92.52,0c-1.68,0-3.05,1.36-3.05,3.05v43.67c0,6.09,4.61,11.16,10.29,12.34v81.29
		c0,4.44,3.6,8.03,8.03,8.03c4.44,0,8.03-3.6,8.03-8.03V59.11c5.83-1.06,10.29-6.2,10.29-12.39L126.13,3.05z"/>
	<path class="st0" d="M71.1,141.63l-30.07-3.35V92.44c18.93-2.01,33.73-19.49,33.73-40.76c0-0.65-0.02-1.29-0.04-1.94
		C75.52,36.37,61.7,0,61.7,0H37.53h-0.29H13.07c0,0-13.82,36.37-13.02,49.74C0.02,50.39,0,51.03,0,51.68
		c0,21.27,14.8,38.75,33.73,40.76v45.84l-30.07,3.35c-1.81,0-3.29,1.52-3.29,3.38c0,1.86,1.48,3.38,3.29,3.38H71.1
		c1.81,0,3.29-1.52,3.29-3.38C74.39,143.15,72.91,141.63,71.1,141.63z"/>
</g>
</svg>
