<?xml version="1.0" encoding="utf-8"?>
<!-- Generator: Adobe Illustrator 24.2.1, SVG Export Plug-In . SVG Version: 6.00 Build 0)  -->
<svg version="1.1" id="Layer_1" xmlns="http://www.w3.org/2000/svg" xmlns:xlink="http://www.w3.org/1999/xlink" x="0px" y="0px"
	 viewBox="0 0 31.6 61" style="enable-background:new 0 0 31.6 61;" xml:space="preserve">
<style type="text/css">
	.st0{fill:#FFFFFF;}
</style>
<path class="st0" d="M28.2,48.4c-0.8,0.5-1.8,1-2.9,1.4c-2.2,0.8-4.9,1.3-8,1.5c-1,0.1-2.1,0.1-3.2,0.1c-3.2,0-6.2-0.3-8.8-0.9
	c-2.2-0.5-4-1.2-5.3-2.1V51c0,0.5,0.3,1,0.9,1.5s1.6,1,2.9,1.5c2.6,0.9,6.2,1.5,10.3,1.5c3,0,5.9-0.3,8.2-0.9s4.1-1.3,5-2.1
	c0.6-0.5,0.9-1,0.9-1.5L28.2,48.4L28.2,48.4z"/>
<path class="st0" d="M28.2,54c-0.8,0.5-1.8,1-2.9,1.4c-2.2,0.8-4.9,1.3-8,1.5c-1,0.1-2.1,0.1-3.2,0.1c-3.2,0-6.2-0.3-8.8-0.9
	c-2.2-0.5-4-1.2-5.3-2.1v2.6c0,0.5,0.3,1,0.9,1.5s1.6,1,2.9,1.5C6.4,60.4,10,61,14.1,61c3,0,5.9-0.3,8.2-0.9s4.1-1.3,5-2.1
	c0.6-0.5,0.9-1,0.9-1.5L28.2,54L28.2,54z"/>
<path class="st0" d="M25.3,44.2c-2.2,0.8-4.9,1.3-8,1.5c-1,0.1-2.1,0.1-3.2,0.1c-3.2,0-6.2-0.3-8.8-0.9c-2.2-0.5-4-1.2-5.3-2.1v2.6
	c0,0.5,0.3,1,0.9,1.5s1.6,1,2.9,1.5c2.6,0.9,6.2,1.5,10.3,1.5c0.8,0,1.5,0,2.2-0.1c2.2-0.1,4.2-0.4,5.9-0.8c2.3-0.5,4.1-1.3,5-2.1
	c0.6-0.5,0.9-1,0.9-1.5v-2.6C27.4,43.3,26.4,43.8,25.3,44.2z"/>
<path class="st0" d="M25.3,38.5c-2.2,0.8-4.9,1.3-8,1.5c-1,0.1-2.1,0.1-3.2,0.1c-3.2,0-6.2-0.3-8.8-0.9c-2.2-0.5-4-1.2-5.3-2.1v2.6
	c0,0.5,0.3,1,0.9,1.5s1.6,1,2.9,1.5c2.6,0.9,6.2,1.5,10.3,1.5c0.8,0,1.5,0,2.2-0.1c2.2-0.1,4.2-0.4,5.9-0.8c2.3-0.5,4.1-1.3,5-2.1
	c0.6-0.5,0.9-1,0.9-1.5v-2.6C27.4,37.7,26.4,38.1,25.3,38.5z"/>
<path class="st0" d="M25.3,32.9c-2.9,1-6.9,1.6-11.2,1.6c-3.2,0-6.2-0.3-8.8-0.9c-2.2-0.5-4-1.2-5.3-2.1v2.6c0,0.5,0.3,1,0.9,1.5
	s1.6,1,2.9,1.5c2.6,0.9,6.2,1.5,10.3,1.5c0.8,0,1.5,0,2.2-0.1c2.2-0.1,4.2-0.4,5.9-0.8c2.3-0.5,4.1-1.3,5-2.1c0.6-0.5,0.9-1,0.9-1.5
	v-2.6C27.4,32,26.4,32.5,25.3,32.9z"/>
<path class="st0" d="M0.9,26.9C0.3,27.5,0,28,0,28.4s0.3,1,0.9,1.5s1.6,1,2.9,1.5c2.6,0.9,6.2,1.5,10.3,1.5c3,0,5.9-0.3,8.2-0.9
	s4.1-1.3,5-2.1c0.6-0.5,0.9-1,0.9-1.5s-0.3-1-0.9-1.5s-1.6-1-2.9-1.5c-2.6-0.9-6.2-1.5-10.3-1.5c-3,0-5.9,0.3-8.2,0.9
	C3.6,25.4,1.9,26.1,0.9,26.9z"/>
<path class="st0" d="M26.8,16.9c-3.1-0.5-6.8-1.8-10.6-3.9c-2.9-1.5-5.4-3.3-7.3-5C7.2,6.6,6,5.1,5.2,3.7L4,6C3.8,6.4,3.8,7,4.1,7.7
	C4.4,8.5,5,9.4,5.9,10.4c1.8,2,4.8,4.2,8.4,6.2c0.7,0.4,1.3,0.7,2,1c2,0.9,3.9,1.6,5.6,2.1c2.3,0.6,4.2,0.8,5.4,0.5
	c0.8-0.2,1.3-0.5,1.5-0.9l1.2-2.3C29.1,17.1,28,17.1,26.8,16.9z"/>
<path class="st0" d="M8.2,0.1C7.4,0.3,6.9,0.6,6.7,1C6.4,1.4,6.4,2,6.7,2.8c0.3,0.8,0.9,1.7,1.9,2.7c1.8,2,4.8,4.2,8.4,6.2
	c2.7,1.4,5.3,2.5,7.6,3.1c2.3,0.6,4.2,0.8,5.4,0.5c0.8-0.2,1.3-0.5,1.5-0.9c0.2-0.4,0.2-1-0.1-1.8c-0.3-0.8-0.9-1.7-1.9-2.7
	c-1.8-2-4.8-4.2-8.4-6.2c-2.7-1.4-5.3-2.5-7.6-3.1C11.3,0,9.4-0.1,8.2,0.1z"/>
</svg>
