<?xml version="1.0" encoding="utf-8"?>
<!-- Generator: Adobe Illustrator 24.2.0, SVG Export Plug-In . SVG Version: 6.00 Build 0)  -->
<svg version="1.1" id="ffe461da-1fae-4069-b43d-d86b987d49f2"
	 xmlns="http://www.w3.org/2000/svg" xmlns:xlink="http://www.w3.org/1999/xlink" x="0px" y="0px" viewBox="0 0 414.5 113.6"
	 style="enable-background:new 0 0 414.5 113.6;" xml:space="preserve">
<style type="text/css">
	.st0{fill:url(#SVGID_1_);}
	.st1{fill-rule:evenodd;clip-rule:evenodd;fill:#B3B3BA;}
	.st2{fill:#B3B3BA;}
	.st3{fill:#FFFFFF;}
	.st4{fill:#1D1D1B;}
	.st5{fill:#5EC5E8;}
	.st6{fill-rule:evenodd;clip-rule:evenodd;fill:#FFFFFF;}
	.st7{fill:#2581C4;}
	.st8{fill:#706F6F;}
	.st9{fill:#E30613;}
	.st10{fill:none;stroke:#1D1D1B;stroke-width:0.22;stroke-miterlimit:2.61;}
	.st11{fill:none;}
	.st12{fill:none;stroke:#1D1D1B;stroke-width:0.24;stroke-miterlimit:2.61;}
</style>
<linearGradient id="SVGID_1_" gradientUnits="userSpaceOnUse" x1="149.16" y1="83.934" x2="415.43" y2="83.934" gradientTransform="matrix(1 0 0 -1 0 116)">
	<stop  offset="0" style="stop-color:#5EC5E8"/>
	<stop  offset="0.12" style="stop-color:#5BC3E2"/>
	<stop  offset="0.28" style="stop-color:#52BFD2"/>
	<stop  offset="0.47" style="stop-color:#42B7B7"/>
	<stop  offset="0.66" style="stop-color:#2DAD91"/>
	<stop  offset="0.87" style="stop-color:#129F61"/>
	<stop  offset="1" style="stop-color:#009640"/>
</linearGradient>
<path class="st0" d="M155.1,29.9c11.7-2.5,23-5.8,34.9-8V31c15.9,2.8,28.6,8.6,46.2,8.7c22.6,0.2,38.5-9.6,61.6-9.6
	c13.6,0,25.2,3.9,37.2,7V13.8c-21.8,3.9-41.4,11.6-65.3,11.8s-41-10.8-64-10.9c-19-0.1-34.1,9-50.7,10.9L155.1,29.9z M155.1,48.7
	c12.6-1.4,23.3-5.5,34.9-8.2V31c-4.6-0.9-9.4-1.3-14.1-1.3c-7,0-14,0.7-20.9,1.8L155.1,48.7z M339.3,38.2c-1.4-0.3-2.9-0.7-4.3-1
	c-21.8,3.8-41.9,11.4-65.3,11.6s-38.9-9.9-61.6-9.8c-6.1-0.1-12.2,0.4-18.2,1.6v4.9c-11.8,2.1-23.2,5.2-34.9,7.6L155,55
	c6.5-1.1,13-1.7,19.6-1.7c23.8-0.1,40.8,10.6,64,10.3c20.6-0.3,38.9-9.8,61.6-9.8s38.3,10.6,61.6,10.4c20.3-0.2,34-4.8,52.7-8.8V32
	c-9.3,1.8-7.7,1.8-16.8,3.9v-11h-33.5V16l2.8,0.1l-4-4L359.8,0l-2.8,12.1l-3.8,3.8h2.5v8.8h-4.4l-5.7,9.1L339.3,38.2"/>
<path class="st1" d="M385,38.7"/>
<polygon class="st1" points="388.1,38.6 388.1,38.7 388.2,38.7 388.1,38.6 "/>
<polygon class="st1" points="388.2,38.7 397.6,38.7 388.2,38.7 388.2,38.7 "/>
<polygon class="st2" points="388.1,38.7 388.1,38.7 388.2,38.7 388.2,38.7 388.1,38.7 "/>
<path class="st3" d="M339.8,38.6v18h4.2V42.7l3.2-1.2l2.8,2.1v13h3.1v-16c-4-0.4-8-1.1-12-2l-1.8-0.4L339.8,38.6z"/>
<path class="st4" d="M165,73.6h3.9v9h0.1c0.3-0.8,0.6-1.7,1-2.6l2.7-6.4h4.3l-4.5,8.7l4.5,11.4h-4.2l-2.9-8.3l-0.9,1.7v6.7H165V73.6
	z"/>
<path class="st4" d="M179,83.4c0-1.5-0.1-3-0.1-4.4h3.4l0.2,2.1h0.1c0.4-1.3,1.5-2.2,2.9-2.3c0.3,0,0.6,0,0.8,0.1v3.9
	c-0.3-0.1-0.6-0.1-0.8-0.1c-1.2,0.1-2.2,0.9-2.4,2.1c-0.1,0.5-0.2,1-0.1,1.5v7.4H179V83.4z"/>
<path class="st4" d="M198.6,90.3c0,1.1,0.1,2.2,0.2,3.3h-3.5l-0.2-1.4h-0.1c-0.7,1.1-1.9,1.7-3.2,1.7c-2.2,0-3.8-1.8-3.8-4.4
	c0-3.8,3.4-5.4,6.7-5.4v-0.3c0.1-1-0.7-1.9-1.7-2c-0.1,0-0.2,0-0.3,0c-1.1,0-2.1,0.3-3,0.8l-0.7-2.6c1.4-0.7,2.9-1.1,4.5-1.1
	c4.4,0,5.1,3.1,5.1,6L198.6,90.3z M194.8,86.6c-1.3,0-3.1,0.4-3.1,2.5c0,1.4,0.8,2,1.4,2c0.8,0,1.4-0.5,1.6-1.2
	c0.1-0.2,0.1-0.5,0.1-0.7V86.6z"/>
<path class="st4" d="M212.8,73v16.3c0,1.4,0.1,3,0.1,4.3h-3.4l-0.2-1.6h-0.1c-0.6,1.1-1.7,1.8-3,1.9c-3.1,0-4.5-3.4-4.5-7.5
	c0-5.1,2.2-7.5,4.7-7.5c1-0.1,2,0.5,2.4,1.5h0.1V73H212.8z M208.9,84.6c0-0.3,0-0.6,0-0.9c-0.1-0.9-0.6-1.7-1.4-1.7
	c-1.4,0-1.9,2-1.9,4.3c0,2.8,0.7,4.2,1.8,4.2c0.5,0,1.1-0.3,1.3-1.3c0.1-0.3,0.1-0.6,0.1-0.9L208.9,84.6z"/>
<path class="st4" d="M226.8,86.3c0,6.1-3.4,7.6-5.6,7.6c-3.5,0-5.6-2.7-5.6-7.5c0-5.2,2.7-7.6,5.6-7.6
	C224.7,78.8,226.8,81.7,226.8,86.3z M219.5,86.3c0,2.5,0.4,4.6,1.8,4.6c1.2,0,1.6-2.4,1.6-4.6s-0.3-4.5-1.6-4.5
	S219.5,84.3,219.5,86.3z"/>
<path class="st4" d="M229.6,73h3.9v20.6h-3.9V73z"/>
<path class="st4" d="M237.8,93.6V81.8h-2v-2.8h2v-0.6c-0.1-1.6,0.4-3.2,1.5-4.3c0.9-0.9,2.2-1.4,3.5-1.3c0.8,0,1.6,0.1,2.4,0.3
	l-0.4,3c-0.4-0.1-0.8-0.2-1.2-0.2c-1.3,0-1.8,1.1-1.8,2.4v0.7h2.5v2.8h-2.5v11.8H237.8z"/>
<path class="st4" d="M253.7,84v2.8h-5.9V84H253.7z"/>
<path class="st4" d="M257.9,89.6c1,0.5,2.2,0.8,3.3,0.8c1.9,0,2.7-1,2.7-2.3c0-1.5-0.9-2.2-2.6-3.3c-2.7-1.7-3.8-3.8-3.8-5.6
	c0-3.2,2.1-5.9,6.3-5.9c1.1,0,2.2,0.2,3.1,0.7l-0.6,3.4c-0.8-0.5-1.7-0.7-2.6-0.7c-1.7,0-2.5,1-2.5,2.1s0.6,1.8,2.8,3.1
	c2.6,1.6,3.6,3.6,3.6,5.8c0,3.7-2.7,6.1-6.6,6.1c-1.3,0-2.6-0.3-3.8-0.8L257.9,89.6z"/>
<path class="st4" d="M278.6,93.4c-0.8,0.3-1.6,0.4-2.5,0.4c-3.7,0-6.1-2.6-6.1-7.3c0-4.5,2.6-7.6,6.7-7.6c0.7,0,1.5,0.1,2.1,0.4
	l-0.5,3.1c-0.5-0.2-1-0.3-1.5-0.3c-1.9,0-3,1.8-3,4.3s1.1,4.2,2.9,4.2c0.5,0,1-0.1,1.5-0.3L278.6,93.4z"/>
<path class="st4" d="M281,73h3.9v7.6h0.1c0.3-0.5,0.8-0.9,1.2-1.2c0.6-0.3,1.3-0.5,2-0.5c2.7,0,3.7,2.3,3.7,6v8.8h-4v-8.9
	c0-1.4-0.3-2.7-1.4-2.7c-0.7,0-1.2,0.4-1.5,1.4c-0.1,0.4-0.1,0.7-0.1,1.1v9H281V73z"/>
<path class="st4" d="M305.7,86.3c0,6.1-3.4,7.6-5.6,7.6c-3.5,0-5.6-2.7-5.6-7.5c0-5.2,2.7-7.6,5.6-7.6
	C303.6,78.8,305.7,81.7,305.7,86.3z M297.5,77c-1.1-0.1-1.8-1-1.8-2c0.1-0.9,0.8-1.7,1.8-1.8c1.1,0.1,1.8,1,1.8,2
	C299.2,76.2,298.4,76.9,297.5,77z M298.5,86.3c0,2.5,0.4,4.6,1.8,4.6s1.6-2.4,1.6-4.6s-0.3-4.5-1.6-4.5S298.5,84.3,298.5,86.3
	L298.5,86.3z M302.8,77c-1.1-0.1-1.8-1-1.8-2c0.1-0.9,0.8-1.7,1.8-1.8c1.1,0.1,1.8,1,1.8,2C304.5,76.2,303.7,76.9,302.8,77z"/>
<path class="st4" d="M308.5,83.4c0-1.6-0.1-3-0.1-4.4h3.4l0.2,1.7h0.1c0.8-1.2,2.1-1.9,3.5-1.9c2.8,0,3.9,2.2,3.9,5.4v9.3h-3.9v-9.1
	c0-1.2-0.3-2.4-1.4-2.4c-0.7,0-1.2,0.4-1.5,1.3c-0.2,0.4-0.2,0.9-0.2,1.3v8.9h-3.9L308.5,83.4z"/>
<path class="st4" d="M326,87.7c0.1,2.3,1.4,3.1,3.1,3.1c0.9,0,1.9-0.2,2.8-0.5l0.5,2.8c-1.3,0.4-2.6,0.7-4,0.7c-4,0-6.1-2.6-6.1-7.2
	c0-4.9,2.5-7.8,5.8-7.8c3.1,0,4.9,2.5,4.9,6.9c0,0.7,0,1.3-0.1,2L326,87.7z M329.5,85c0-1.9-0.5-3.3-1.6-3.3S326,83.5,326,85H329.5z
	"/>
<path class="st4" d="M335.9,83.4c0-1.6-0.1-3-0.1-4.4h3.4l0.2,1.7h0.1c0.8-1.2,2.1-1.9,3.5-1.9c2.8,0,3.9,2.2,3.9,5.4v9.3h-3.9v-9.1
	c0-1.2-0.3-2.4-1.4-2.4c-0.7,0-1.3,0.6-1.5,1.3c-0.2,0.4-0.2,0.9-0.2,1.3v8.9h-3.9L335.9,83.4z"/>
<path class="st4" d="M350.3,73h3.9v7.5h0.1c0.6-1.1,1.8-1.7,3-1.7c2.8,0,4.1,3.2,4.1,7.1c0,5.1-2,7.9-4.7,7.9c-1.3,0-2.4-0.8-2.9-2
	h-0.1l-0.2,1.7h-3.3c0.1-1.3,0.1-2.9,0.1-4.3L350.3,73z M354.2,88.4c0,0.3,0,0.6,0.1,0.9c0.3,1,0.9,1.3,1.3,1.3
	c1.3,0,1.8-1.6,1.8-4.4c0-2.5-0.6-4.1-1.9-4.1c-0.6,0-1.1,0.6-1.3,1.3c-0.1,0.3-0.1,0.6-0.1,0.9V88.4z"/>
<path class="st4" d="M367.7,87.7c-0.2,1.5,1,2.9,2.5,3.1c0.2,0,0.4,0,0.6,0c0.9,0,1.9-0.2,2.8-0.5l0.5,2.8c-1.3,0.4-2.6,0.7-4,0.7
	c-4,0-6.1-2.6-6.1-7.2c0-4.9,2.5-7.8,5.8-7.8c3.1,0,4.9,2.5,4.9,6.9c0,0.7,0,1.3-0.1,2L367.7,87.7z M371.2,85c0-1.9-0.5-3.3-1.6-3.3
	s-1.8,1.9-1.8,3.3H371.2z"/>
<path class="st4" d="M377.7,83.4c0-1.5-0.1-3-0.1-4.4h3.4l0.2,2.1h0.1c0.4-1.3,1.5-2.2,2.9-2.3c0.3,0,0.6,0,0.8,0.1v3.9
	c-0.3-0.1-0.6-0.1-0.8-0.1c-1.2,0.1-2.2,0.9-2.4,2.1c-0.1,0.5-0.2,1-0.1,1.5v7.4h-3.9L377.7,83.4z"/>
<path class="st4" d="M397.7,92c0,3.1-0.6,4.8-1.8,6c-1.3,1.1-3,1.7-4.7,1.6c-1.2,0-2.5-0.2-3.6-0.7l0.7-3c0.9,0.4,1.8,0.6,2.8,0.6
	c2,0,2.7-1.3,2.7-3.5v-0.9h-0.1c-0.5,0.9-1.5,1.5-2.6,1.5c-3.3,0-4.5-3.6-4.5-7.1c0-4.8,2.2-7.7,4.9-7.7c1.2,0,2.2,0.7,2.7,1.7h0.1
	l0.2-1.5h3.4c-0.1,1.3-0.1,2.8-0.1,4.6L397.7,92z M393.8,84.4c0-0.4-0.1-0.7-0.1-1.1c-0.1-0.6-0.6-1.1-1.2-1.2c-1.4,0-2,1.9-2,4.3
	c0,2.7,0.8,4.1,1.9,4.1c0.6,0,1.1-0.4,1.3-1c0.1-0.4,0.2-0.8,0.2-1.2L393.8,84.4z"/>
<path class="st5" d="M82.1,24.8c-13.5-2.8-24.8-8.8-40.8-8.8h-1.9l0.3-1.7c1.9-1.7,4.6-2.2,7-1.2l0.6-0.7c1.1-0.1,2,1,3.3-0.3
	l1.3-1.8l-1.8,0.6l1.6-1.1l-3,0.2c-0.8,0.1-1.2,1.4-2.3,0.4c-1.9,0.2-3.6,1.2-5.8,0.7l-3.3,3.2c-0.3,0.6-0.6,1.2-0.8,1.8
	c-0.6,0-1.5,0-1.5,0c-0.6-1.3-1.7-2.3-2.9-2.9l-2-0.6L29,10.9c1.6-0.3,2.5,0.8,3.7,1.1c0.8,0.2,1.2-0.1,1.3,0.3
	c0.3,0.7,1.6,1.1,2.2,1c1.8-0.2-4.1-3-0.8-1.7c0.6,0.2,2.1,2.1,2.5-0.1c-0.3-1.8-1.2-2.2-2.5-3.3l-0.7-1.7l-1-0.8h18.6L43.6,4
	L44.9,5l-4.6-1l1.1,0.8l-3.6-1l1,1l-4.1-1l2.1,1.2l-5-1.4L33,4.9c-1.4-0.7-3.1-1.5-3.5-1.5L26,4.1l-1.3-0.2l-1.7-1h-1.6l3,2.8
	l-0.9,1.5l-0.7,4.2l0.4,3.4c-0.2,1.1-0.5,2.1-1,3.1c-7.5,1.2-14.9,2.9-22.2,5v22.4c6.9-1.8,13-3.5,20.1-4.9l0,0
	c0.1,1.1,0.4,2.2,0.9,3.2l2,0.4l0.3,4.8l1,7.4l-3.1,2.5c0,1.5,1,1.6,1.6,2.4c0.7,1.2,1.2,2.5,1.7,3.8c0.4,0.9,0.6,1.9,0.5,2.9
	l1.4,0.4c-0.1,1-0.3,2-0.4,2.9c1,1,2.4,0.8,3.6,1.2l-1.3-2.5l2.4,2c0.5-1.6-1.2-2.4-1.8-3.6l-3.9-7.9l1.8-3.5l3.3-1.8l0.7-2.8
	l0.9-2.9l-0.9-4l-0.9-1.4c6.5,3.5,4.9,0.6,5.8,8.9c0,3-0.3,4.3,0.3,4.4s2.8,0.7,2.7-1.9c1.2-1.7,2.4-3.4,3.7-5.2l2.1-4l-0.2-0.7
	l-0.2-0.7c0.9,0,2.6-0.7,2.7-1.5l0.2-2.2l-1.4,1.2c0.2-0.4,0.7-1,0.7-1.2l-0.1-0.7l-1.5,0.6L43,42.4l-0.2,1.6L38,51.6l0-2.7
	c0.2-2,1.3-3.5,0.7-5.9l-1.3-2c-1.2-1.4-3.9-0.8-5.8-1.2l0.4-1.2c2.7-0.2,5.5-0.4,8.4-0.4c15.7,0,28.2,5.8,42,8.9L82.1,24.8z"/>
<path class="st3" d="M22.6,42.4l-0.9,0.6c-0.2-0.7-0.4-1.9-0.5-2.9c0.5-0.2,1-0.4,1.5-0.5h0.1L22.6,42.4z"/>
<path class="st6" d="M20.9,34.8c0.8-2.2,0.9-4.7,2.5-6.5c0.1-1.1-0.4-2.1-1.2-2.8l-1.2,3.4l-0.1,2.2c-0.3,1.1-0.6,2.3-1,3.4
	c0,2,0.1,4,0.3,5.9l1.2-0.2C20.9,38.4,20.7,36.6,20.9,34.8L20.9,34.8z"/>
<path class="st6" d="M35,30.1l2.4-1.2l0.9-2.8l0.8-4.4l1.4,0.7l1.8,2.7c1,3,1.4,5.7,2.4,4.7c-0.7,3,0.1,3.2,2.4,2.9l-1.5-1.7l1.2,1
	l1.1,0.3c-1.3-2.3-2.7-4.6-4-6.9L41.9,21c-0.1-0.9,0.2-1.8-0.4-2.6l-1.2-0.1l-2.7,2l1.3-2.2l0.2-2.1l0,0c-1,0-2,0-2.9,0.1l-0.5,1
	c-0.3-0.3-0.5-0.6-0.8-1c-4.3,0.3-8.5,0.8-12.7,1.5c-0.1,0.4-0.2,0.8-0.4,1.1l1-0.8c-0.3,1-0.4,1.8-0.8,3.2l1.2-1.4
	c0.4,1.4-0.5,2.2-0.7,3.2l2.1-1.5l0.2,1.6l-0.3,4.3l0.4,6.4c-0.8,1.8-2.1,1.3-2.3,5.7v0.2c2.9-0.5,5.9-0.9,8.9-1.2l0.8-2.8L35,30.1z
	"/>
<path class="st7" d="M165.1,104c0.7-0.1,1.5-0.2,2.3-0.2c0.9-0.1,1.9,0.2,2.6,0.7c0.5,0.4,0.8,1,0.8,1.7c0,1-0.7,1.8-1.6,2.1l0,0
	c1.2,0.2,2,1.2,2,2.4c0,0.7-0.3,1.4-0.8,1.9c-1,0.7-2.1,1-3.3,0.9c-0.6,0-1.3,0-1.9-0.1L165.1,104z M166.3,107.9h1.1
	c1.3,0,2.1-0.7,2.1-1.6c0-1.1-0.9-1.6-2.1-1.6c-0.4,0-0.7,0-1.1,0.1V107.9z M166.3,112.5c0.3,0,0.7,0.1,1,0.1c1.3,0,2.5-0.5,2.5-1.9
	s-1.1-1.8-2.5-1.8h-1L166.3,112.5z"/>
<path class="st7" d="M175,103.9v5.7c0,2.2,1,3.1,2.2,3.1s2.3-0.9,2.3-3.1v-5.7h1.2v5.6c0,3-1.6,4.2-3.6,4.2s-3.4-1.1-3.4-4.1v-5.7
	L175,103.9z"/>
<path class="st7" d="M185.1,103.9v4h4.6v-4h1.2v9.6h-1.2V109h-4.6v4.5h-1.2v-9.6L185.1,103.9z"/>
<path class="st7" d="M195.7,113.5l-2.4-9.6h1.3l1.1,4.9c0.3,1.2,0.6,2.4,0.7,3.3l0,0c0.1-1,0.4-2.1,0.8-3.3l1.3-4.8h1.3l1.2,4.9
	c0.3,1.1,0.5,2.3,0.7,3.3l0,0c0.2-1,0.5-2.1,0.8-3.3l1.3-4.8h1.4l-2.7,9.6H201l-1.2-5c-0.3-1-0.5-2.1-0.6-3.1l0,0
	c-0.2,1.1-0.4,2.1-0.8,3.1l-1.4,5H195.7z"/>
<path class="st7" d="M208.4,103.9v9.6h-1.2v-9.6H208.4z"/>
<path class="st7" d="M211.5,103.9h1.2v8.6h4.1v1h-5.4V103.9z"/>
<path class="st7" d="M228.7,108.3v0.8h-6.3v-0.8H228.7z"/>
<path class="st7" d="M235.1,113.5v-9.6h1.4l3.1,4.9c0.6,1,1.2,2,1.7,3.1l0,0c-0.1-1.3-0.1-2.4-0.1-3.9v-4h1.2v9.6h-1.2l-3.1-4.9
	c-0.7-1-1.3-2.1-1.8-3.2l0,0c0.1,1.2,0.1,2.4,0.1,4v4.1L235.1,113.5z"/>
<path class="st7" d="M250.4,109h-3.7v3.5h4.2v1h-5.4v-9.6h5.2v1h-3.9v3h3.7V109z"/>
<path class="st7" d="M254.6,103.9v5.7c0,2.2,1,3.1,2.2,3.1c1.4,0,2.3-0.9,2.3-3.1v-5.7h1.3v5.6c0,3-1.6,4.2-3.6,4.2
	s-3.4-1.1-3.4-4.1v-5.7L254.6,103.9z"/>
<path class="st7" d="M263.5,103.9h1.2v4.6l0,0c0.3-0.4,0.5-0.7,0.8-1l2.9-3.6h1.5l-3.5,4.1l3.8,5.5h-1.5l-3.2-4.7l-0.9,1.1v3.7h-1.2
	L263.5,103.9z"/>
<path class="st7" d="M273.5,103.9v9.6h-1.2v-9.6H273.5z"/>
<path class="st7" d="M276.6,104c0.8-0.1,1.6-0.2,2.4-0.2c1-0.1,2,0.2,2.8,0.8c0.5,0.5,0.8,1.1,0.8,1.8c0,1.1-0.7,2.1-1.8,2.4l0,0
	c0.8,0.3,1.3,1.1,1.4,1.9c0.2,0.9,0.4,1.8,0.7,2.6h-1.3c-0.3-0.7-0.5-1.5-0.6-2.3c-0.3-1.3-0.8-1.8-1.9-1.9h-1.2v4.2h-1.2V104z
	 M277.8,108.4h1.3c1.3,0,2.2-0.7,2.2-1.8c0-1.2-0.9-1.8-2.2-1.8c-0.4,0-0.8,0-1.2,0.1V108.4z"/>
<path class="st7" d="M291.9,113.2c-0.8,0.3-1.7,0.5-2.5,0.5c-2.5,0.1-4.6-1.8-4.7-4.2c0-0.2,0-0.4,0-0.6c-0.1-2.6,1.9-4.9,4.5-5
	c0.2,0,0.3,0,0.5,0c0.8,0,1.6,0.1,2.3,0.4l-0.3,1c-0.6-0.3-1.3-0.4-1.9-0.4c-2.3,0-3.8,1.4-3.8,4c0,2.3,1.4,3.9,3.7,3.9
	c0.7,0,1.4-0.1,2-0.4L291.9,113.2z"/>
<path class="st7" d="M295.6,103.9v4h4.6v-4h1.2v9.6h-1.2V109h-4.6v4.5h-1.2v-9.6L295.6,103.9z"/>
<path class="st7" d="M310.2,110.4l-1,3h-1.3l3.3-9.6h1.5l3.3,9.6h-1.3l-1-3H310.2z M313.3,109.4l-0.9-2.8c-0.2-0.6-0.4-1.2-0.5-1.8
	l0,0c-0.1,0.6-0.3,1.2-0.5,1.7l-0.9,2.8L313.3,109.4z"/>
<path class="st7" d="M318.3,113.5v-9.6h1.4l3.1,4.9c0.6,1,1.2,2,1.7,3.1l0,0c-0.1-1.3-0.1-2.4-0.1-3.9v-4h1.2v9.6h-1.3l-3-4.9
	c-0.7-1-1.3-2.1-1.8-3.2l0,0c0.1,1.2,0.1,2.4,0.1,4v4.1L318.3,113.5z"/>
<path class="st7" d="M332.5,104c0.9-0.1,1.8-0.2,2.6-0.2c1.4-0.1,2.8,0.3,3.9,1.2c0.9,0.9,1.4,2.2,1.4,3.4c0.1,1.4-0.4,2.7-1.4,3.7
	c-1.2,1-2.7,1.5-4.2,1.4c-0.8,0-1.5,0-2.3-0.1V104z M333.8,112.5c0.4,0.1,0.8,0.1,1.3,0.1c2.6,0,4.1-1.5,4.1-4.1
	c0-2.3-1.3-3.7-3.9-3.7c-0.5,0-1,0-1.5,0.1V112.5z"/>
<path class="st7" d="M348,109h-3.7v3.5h4.2v1H343v-9.6h5.2v1h-3.9v3h3.8V109z"/>
<path class="st7" d="M350.9,104c0.8-0.1,1.6-0.2,2.4-0.2c1-0.1,2,0.2,2.8,0.8c0.5,0.5,0.8,1.1,0.8,1.8c0,1.1-0.7,2.1-1.8,2.4l0,0
	c0.8,0.3,1.3,1.1,1.4,1.9c0.2,0.9,0.4,1.8,0.7,2.6h-1.3c-0.3-0.7-0.5-1.5-0.6-2.3c-0.3-1.3-0.8-1.8-1.9-1.9h-1.2v4.2h-1.2V104z
	 M352.2,108.4h1.3c1.3,0,2.2-0.7,2.2-1.8c0-1.2-0.9-1.8-2.2-1.8c-0.4,0-0.8,0-1.2,0.1V108.4z"/>
<path class="st7" d="M364.7,104.9h-2.9v-1h7.1v1H366v8.6h-1.3L364.7,104.9z"/>
<path class="st7" d="M372.2,103.9v4h4.6v-4h1.2v9.6h-1.2V109h-4.6v4.5h-1.2v-9.6L372.2,103.9z"/>
<path class="st7" d="M382.4,103.9v5.7c0,2.2,1,3.1,2.2,3.1c1.4,0,2.3-0.9,2.3-3.1v-5.7h1.2v5.6c0,3-1.5,4.2-3.6,4.2
	s-3.5-1.1-3.5-4.1v-5.7L382.4,103.9z"/>
<path class="st7" d="M391.3,104c0.8-0.1,1.6-0.2,2.4-0.2c1-0.1,2,0.2,2.8,0.8c0.5,0.5,0.8,1.1,0.8,1.8c0,1.1-0.7,2.1-1.8,2.4l0,0
	c0.8,0.3,1.3,1.1,1.4,1.9c0.2,0.9,0.4,1.8,0.7,2.6h-1.3c-0.3-0.7-0.5-1.5-0.6-2.3c-0.3-1.3-0.8-1.8-1.9-1.9h-1.2v4.2h-1.2L391.3,104
	z M392.6,108.4h1.3c1.3,0,2.2-0.7,2.2-1.8c0-1.2-0.9-1.8-2.2-1.8c-0.4,0-0.8,0-1.2,0.1V108.4z"/>
<path class="st4" d="M89.3,93.1c-1,0.4-2,0.5-3,0.6c-1.3,0.1-2.6-0.4-3.6-1.3c-0.9-1-1.4-2.4-1.3-3.7c-0.1-2.7,1.9-5,4.7-5.2
	c0.2,0,0.4,0,0.5,0c0.8,0,1.7,0.2,2.4,0.5l-0.3,1c-0.7-0.3-1.4-0.5-2.1-0.4c-2-0.1-3.8,1.4-3.9,3.4c0,0.2,0,0.4,0,0.6
	c0,2.5,1.5,4,3.7,4c0.6,0,1.1-0.1,1.7-0.3v-3h-2v-1h3.2L89.3,93.1z"/>
<path class="st4" d="M97.8,88.9H94v3.6h4.2v1.1h-5.4v-10H98v1.1h-4v3.2h3.7L97.8,88.9z"/>
<path class="st4" d="M109.5,89.2c-0.1-1.4-0.2-3.1-0.1-4.3l0,0c-0.3,1.2-0.7,2.4-1.2,3.8l-1.7,4.8h-0.9l-1.6-4.8
	c-0.5-1.4-0.8-2.7-1.1-3.9l0,0c0,1.2-0.1,2.9-0.2,4.4l-0.3,4.3h-1.2l0.7-10h1.6l1.6,4.8c0.4,1.2,0.7,2.3,1,3.4l0,0
	c0.2-1,0.6-2.1,1-3.4l1.7-4.8h1.6l0.6,10h-1.2L109.5,89.2z"/>
<path class="st4" d="M119.5,88.9h-3.7v3.6h4.2v1.1h-5.4v-10h5.2v1.1h-3.9v3.2h3.7V88.9z"/>
<path class="st4" d="M124.3,83.6v10h-1.2v-10H124.3z"/>
<path class="st4" d="M128.1,93.6v-10h1.4l3.1,5c0.6,1,1.2,2.1,1.7,3.2l0,0c-0.1-1.3-0.1-2.5-0.1-4.1v-4.1h1.2v10h-1.2l-3.1-5.1
	c-0.7-1.1-1.3-2.2-1.8-3.3l0,0c0.1,1.3,0.1,2.5,0.1,4.1v4.3L128.1,93.6z"/>
<path class="st4" d="M139.1,83.7c0.9-0.1,1.8-0.2,2.6-0.2c1.4-0.1,2.8,0.3,3.9,1.2c0.9,0.9,1.4,2.3,1.4,3.6c0.1,1.4-0.4,2.8-1.4,3.9
	c-1.2,1-2.7,1.5-4.2,1.4c-0.8,0-1.5,0-2.2-0.1L139.1,83.7z M140.4,92.6c0.4,0.1,0.8,0.1,1.2,0.1c2.6,0,4.1-1.5,4.1-4.2
	c0-2.3-1.3-3.8-3.9-3.8c-0.5,0-1,0-1.4,0.1V92.6z"/>
<path class="st4" d="M155.2,88.9h-3.7v3.6h4.2v1.1h-5.4v-10h5.2v1.1h-4v3.2h3.7L155.2,88.9z"/>
<polyline class="st8" points="155.3,73.8 85.2,73.8 85.2,3.7 155.3,3.7 155.3,25.5 "/>
<path class="st3" d="M81.8,35h69.9c0.1,0,0.1,0.1,0.1,0.1c0,0,0,0,0,0v35c0,0.1-0.1,0.1-0.1,0.1l0,0H81.8c-0.1,0-0.1-0.1-0.1-0.1
	c0,0,0,0,0,0v-35C81.7,35.1,81.7,35,81.8,35C81.8,35,81.8,35,81.8,35z"/>
<path class="st9" d="M107.8,34.8c1.6,10,1.7,28.5,25.1,35.4h18.9v-15c-3.4-0.2-22.1-2.4-20.6-20.3L107.8,34.8L107.8,34.8z"/>
<polygon class="st9" points="151.9,0.1 151.9,35.1 81.7,35.1 81.6,0.1 151.9,0.1 "/>
<path class="st10" d="M81.6,0.1"/>
<path class="st10" d="M81.6,0.1"/>
<line class="st10" x1="81.6" y1="0.1" x2="81.6" y2="0.1"/>
<rect x="81.6" y="0.1" class="st11" width="70.2" height="70.1"/>
<path class="st3" d="M81.7,0.1l0.1,0.2C82.1,26.6,106.4,23.1,108,35h23.1c-1.3-21.5-25.5-14.9-26.2-34.9L81.7,0.1z"/>
<rect x="81.7" y="0.1" class="st12" width="70.2" height="70.1"/>
<path class="st6" d="M385,38.7c-7.6,1.5-15.4,2.2-23.2,2.3l0,0c-2.7,0-5.2-0.1-7.7-0.3v15.9h5.8l0.2-6.2l7.2-3.5h6l11.4-3.5l3.4-4.7
	h0.1l3.4,4.1l0,0l-0.3,6.5l-5.7,0.3l-18.6,7.1h30.5V36L385,38.7z"/>
</svg>
