<?xml version="1.0" encoding="utf-8"?>
<!-- Generator: Adobe Illustrator 24.2.0, SVG Export Plug-In . SVG Version: 6.00 Build 0)  -->
<svg version="1.1" id="Ebene_1" xmlns="http://www.w3.org/2000/svg" xmlns:xlink="http://www.w3.org/1999/xlink" x="0px" y="0px"
	 viewBox="0 0 205 109" style="enable-background:new 0 0 205 109;" xml:space="preserve">
<style type="text/css">
	.st0{fill-rule:evenodd;clip-rule:evenodd;fill:#FFFFFF;}
</style>
<g id="ic_more_vert" transform="translate(24) rotate(90)">
	<path id="path" class="st0" d="M59.5-105c7.18,0,13-5.82,13-13s-5.82-13-13-13s-13,5.82-13,13C46.52-110.83,52.33-105.02,59.5-105z
		 M59.5-92c-7.18,0-13,5.82-13,13s5.82,13,13,13s13-5.82,13-13C72.48-86.17,66.67-91.98,59.5-92z M59.5-53c-7.18,0-13,5.82-13,13
		s5.82,13,13,13s13-5.82,13-13C72.48-47.17,66.67-52.98,59.5-53z"/>
</g>
</svg>
