<?xml version="1.0" encoding="utf-8"?>
<!-- Generator: Adobe Illustrator 24.2.0, SVG Export Plug-In . SVG Version: 6.00 Build 0)  -->
<svg version="1.1" id="Ebene_1" xmlns="http://www.w3.org/2000/svg" xmlns:xlink="http://www.w3.org/1999/xlink" x="0px" y="0px"
	 viewBox="0 0 205 109" style="enable-background:new 0 0 205 109;" xml:space="preserve">
<style type="text/css">
	.st0{fill:#FFFFFF;}
</style>
<g id="Page-1" transform="translate(0.003)">
	<g id="_003---Call" transform="translate(-0.003)">
		<path id="Shape" class="st0" d="M95.48,64.62c-5.22-4.91-8.67-11.4-9.83-18.47c-0.11-0.85,0.19-1.71,0.81-2.31l6.23-6.22
			c0.92-0.92,1.08-2.34,0.39-3.44l-9.93-15.4c-0.76-1.22-2.32-1.65-3.6-1.01l-15.92,7.5c-1.04,0.51-1.65,1.61-1.53,2.76
			c0.83,7.92,4.3,27.41,23.43,46.54s38.62,22.6,46.55,23.43c1.15,0.12,2.25-0.49,2.76-1.53l7.5-15.92c0.64-1.28,0.2-2.83-1.01-3.6
			l-15.4-9.91c-1.1-0.69-2.52-0.52-3.44,0.39l-6.22,6.23c-0.6,0.61-1.46,0.91-2.31,0.81c-7.07-1.15-13.57-4.61-18.47-9.83
			L95.48,64.62z"/>
		<path id="Shape-2" class="st0" d="M126.04,60.47c-1.54,0-2.78-1.25-2.78-2.78c-0.01-11.51-9.34-20.84-20.85-20.85
			c-1.54-0.05-2.74-1.33-2.69-2.87c0.05-1.47,1.23-2.65,2.69-2.69c14.58,0.02,26.4,11.83,26.41,26.41
			C128.82,59.22,127.57,60.47,126.04,60.47z"/>
		<path id="Shape-3" class="st0" d="M139.94,60.47c-1.54,0-2.78-1.25-2.78-2.78c-0.02-19.18-15.57-34.73-34.75-34.75
			c-1.54-0.05-2.74-1.33-2.69-2.87c0.05-1.47,1.23-2.65,2.69-2.69c22.25,0.03,40.29,18.06,40.31,40.31
			C142.72,59.22,141.47,60.47,139.94,60.47z"/>
	</g>
</g>
</svg>
