<?xml version="1.0" encoding="utf-8"?>
<!-- Generator: Adobe Illustrator 24.2.0, SVG Export Plug-In . SVG Version: 6.00 Build 0)  -->
<svg version="1.1" xmlns="http://www.w3.org/2000/svg" xmlns:xlink="http://www.w3.org/1999/xlink" x="0px" y="0px"
	 viewBox="0 0 32.47 44.88" style="enable-background:new 0 0 32.47 44.88;" xml:space="preserve">
<style type="text/css">
	.st0{fill:#FFFFFF;}
</style>
<g id="Motocycle">
</g>
<g id="Truck">
</g>
<g id="Ship">
</g>
<g id="Aircraft">
</g>
<g id="Metro">
</g>
<g id="Tram">
</g>
<g id="Train">
	<g>
		<g>
			<polygon class="st0" points="23.89,39.98 9.37,39.98 8.38,41.25 24.78,41.25 			"/>
			<polygon class="st0" points="25.7,42.57 7.34,42.57 6.35,43.84 26.59,43.84 			"/>
			<path class="st0" d="M29.72,7.35c-0.66-2.27-3.03-4.04-5.39-4.04h-4.48C19.67,1.45,18.13,0,16.23,0c-1.89,0-3.44,1.45-3.62,3.3
				H8.14c-2.28,0-4.75,1.85-5.38,4.02C2.73,7.43,0,18.57,0,21.06V33.7l4.33,4.33h23.81l4.33-4.33V21.06
				C32.47,18.57,29.74,7.43,29.72,7.35z M5.47,32.79c-1.33,0-2.41-1.08-2.41-2.41c0-1.33,1.08-2.41,2.41-2.41
				c1.33,0,2.41,1.08,2.41,2.41C7.88,31.71,6.8,32.79,5.47,32.79z M15.17,17.22H2.23c0.22-1.39,2.36-7.51,2.36-7.51
				C5,8.56,6.72,7.51,8.19,7.51h7.29L15.17,17.22z M13.85,3.65c0-1.31,1.07-2.38,2.38-2.38s2.38,1.07,2.38,2.38
				s-1.07,2.38-2.38,2.38S13.85,4.97,13.85,3.65z M27,32.79c-1.33,0-2.41-1.08-2.41-2.41c0-1.33,1.08-2.41,2.41-2.41
				c1.33,0,2.41,1.08,2.41,2.41C29.41,31.71,28.33,32.79,27,32.79z M17.29,17.22l-0.31-9.71h7.29c1.53,0,3.18,1.01,3.61,2.2
				c0,0,2.13,6.12,2.36,7.51H17.29z"/>
			<polygon class="st0" points="4.19,44.88 8.48,39.4 6.03,39.4 1.73,44.88 			"/>
			<polygon class="st0" points="30.96,44.88 27.14,39.4 24.78,39.4 28.61,44.88 			"/>
		</g>
	</g>
</g>
<g id="Bus">
</g>
<g id="Car">
</g>
<g id="Bike">
</g>
<g id="People">
</g>
<g id="Text">
</g>
</svg>
