<?xml version="1.0" encoding="utf-8"?>
<!-- Generator: Adobe Illustrator 24.2.0, SVG Export Plug-In . SVG Version: 6.00 Build 0)  -->
<svg version="1.1" id="Layer_1" xmlns="http://www.w3.org/2000/svg" xmlns:xlink="http://www.w3.org/1999/xlink" x="0px" y="0px"
	 viewBox="0 0 1518.64 1400" style="enable-background:new 0 0 1518.64 1400;" xml:space="preserve">
<style type="text/css">
	.st0{fill:#FFFFFF;}
</style>
<g>
	<g>
		<g>
			<path class="st0" d="M1400,142.37h-118.64v94.92c0,52.34-42.58,94.92-94.92,94.92c-52.34,0-94.92-42.58-94.92-94.92v-94.92
				H427.12v94.92c0,52.34-42.58,94.92-94.92,94.92c-52.34,0-94.92-42.58-94.92-94.92v-94.92H118.64C53.23,142.37,0,195.6,0,261.02
				v1020.34C0,1346.77,53.23,1400,118.64,1400H1400c65.42,0,118.64-53.23,118.64-118.64V261.02
				C1518.64,195.6,1465.42,142.37,1400,142.37z M1423.73,1281.36c0,12.86-10.87,23.73-23.73,23.73H118.64
				c-12.86,0-23.73-10.87-23.73-23.73V427.12h1328.81V1281.36z"/>
			<path class="st0" d="M522.03,688.14h166.1c13.05,0,23.73-10.68,23.73-23.73V545.76c0-13.05-10.68-23.73-23.73-23.73h-166.1
				c-13.05,0-23.73,10.68-23.73,23.73v118.64C498.31,677.45,508.99,688.14,522.03,688.14z"/>
			<path class="st0" d="M830.51,688.14h166.1c13.05,0,23.73-10.68,23.73-23.73V545.76c0-13.05-10.68-23.73-23.73-23.73h-166.1
				c-13.05,0-23.73,10.68-23.73,23.73v118.64C806.78,677.45,817.46,688.14,830.51,688.14z"/>
			<path class="st0" d="M1138.98,688.14h166.1c13.05,0,23.73-10.68,23.73-23.73V545.76c0-13.05-10.68-23.73-23.73-23.73h-166.1
				c-13.05,0-23.73,10.68-23.73,23.73v118.64C1115.25,677.45,1125.94,688.14,1138.98,688.14z"/>
			<path class="st0" d="M522.03,949.15h166.1c13.05,0,23.73-10.68,23.73-23.73V806.78c0-13.05-10.68-23.73-23.73-23.73h-166.1
				c-13.05,0-23.73,10.68-23.73,23.73v118.64C498.31,938.47,508.99,949.15,522.03,949.15z"/>
			<path class="st0" d="M213.56,949.15h166.1c13.05,0,23.73-10.68,23.73-23.73V806.78c0-13.05-10.68-23.73-23.73-23.73h-166.1
				c-13.05,0-23.73,10.68-23.73,23.73v118.64C189.83,938.47,200.51,949.15,213.56,949.15z"/>
			<path class="st0" d="M830.51,949.15h166.1c13.05,0,23.73-10.68,23.73-23.73V806.78c0-13.05-10.68-23.73-23.73-23.73h-166.1
				c-13.05,0-23.73,10.68-23.73,23.73v118.64C806.78,938.47,817.46,949.15,830.51,949.15z"/>
			<path class="st0" d="M1138.98,949.15h166.1c13.05,0,23.73-10.68,23.73-23.73V806.78c0-13.05-10.68-23.73-23.73-23.73h-166.1
				c-13.05,0-23.73,10.68-23.73,23.73v118.64C1115.25,938.47,1125.94,949.15,1138.98,949.15z"/>
			<path class="st0" d="M522.03,1210.17h166.1c13.05,0,23.73-10.68,23.73-23.73V1067.8c0-13.05-10.68-23.73-23.73-23.73h-166.1
				c-13.05,0-23.73,10.68-23.73,23.73v118.64C498.31,1199.49,508.99,1210.17,522.03,1210.17z"/>
			<path class="st0" d="M213.56,1210.17h166.1c13.05,0,23.73-10.68,23.73-23.73V1067.8c0-13.05-10.68-23.73-23.73-23.73h-166.1
				c-13.05,0-23.73,10.68-23.73,23.73v118.64C189.83,1199.49,200.51,1210.17,213.56,1210.17z"/>
			<path class="st0" d="M830.51,1210.17h166.1c13.05,0,23.73-10.68,23.73-23.73V1067.8c0-13.05-10.68-23.73-23.73-23.73h-166.1
				c-13.05,0-23.73,10.68-23.73,23.73v118.64C806.78,1199.49,817.46,1210.17,830.51,1210.17z"/>
			<path class="st0" d="M332.2,284.75c26.21,0,47.46-21.25,47.46-47.46V47.46C379.66,21.25,358.41,0,332.2,0
				C306,0,284.75,21.25,284.75,47.46v189.83C284.75,263.5,306,284.75,332.2,284.75z"/>
			<path class="st0" d="M1186.44,284.75c26.21,0,47.46-21.25,47.46-47.46V47.46c0-26.21-21.25-47.46-47.46-47.46
				c-26.21,0-47.46,21.25-47.46,47.46v189.83C1138.98,263.5,1160.23,284.75,1186.44,284.75z"/>
		</g>
	</g>
</g>
</svg>
