<?xml version="1.0" encoding="utf-8"?>
<!-- Generator: Adobe Illustrator 24.2.0, SVG Export Plug-In . SVG Version: 6.00 Build 0)  -->
<svg version="1.1" id="Layer_1" xmlns="http://www.w3.org/2000/svg" xmlns:xlink="http://www.w3.org/1999/xlink" x="0px" y="0px"
	 viewBox="0 0 1866.67 1400" style="enable-background:new 0 0 1866.67 1400;" xml:space="preserve">
<style type="text/css">
	.st0{fill:#FFFFFF;}
</style>
<g>
	<g>
		<g>
			
				<ellipse transform="matrix(0.7071 -0.7071 0.7071 0.7071 260.3755 1124.4344)" class="st0" cx="1487.5" cy="247.92" rx="247.92" ry="247.92"/>
			<path class="st0" d="M1633.33,554.17h-291.67c-86.56,0-162.34,47.87-202.63,118.32C1285.47,687.89,1400,812.05,1400,962.5v199.95
				c27.77,2.73,56.8,4.21,87.5,4.21c152.44,0,264.21-34.73,379.17-93.51V787.5C1866.67,659.17,1761.65,554.17,1633.33,554.17z"/>
			<circle class="st0" cx="379.17" cy="247.92" r="247.92"/>
			<path class="st0" d="M727.6,672.49C687.33,602.03,611.53,554.17,525,554.17H233.33C104.99,554.17,0,659.17,0,787.5v285.66
				c114.94,58.78,226.73,93.51,379.17,93.51c30.71,0,59.71-1.48,87.5-4.21V962.5C466.67,812.05,581.17,687.89,727.6,672.49z"/>
			<circle class="st0" cx="933.33" cy="408.33" r="262.5"/>
			<path class="st0" d="M1115.97,729.54c-2.56-0.06-5.06-0.37-7.63-0.37h-175h-175c-2.58,0-5.07,0.31-7.63,0.37
				C625.9,733.67,525,836.75,525,962.5v343.99c114.94,58.77,255.89,93.51,408.33,93.51s293.38-34.74,408.33-93.51V962.5
				C1341.67,836.75,1240.77,733.67,1115.97,729.54z"/>
		</g>
	</g>
</g>
</svg>
