<?xml version="1.0" encoding="utf-8"?>
<!-- Generator: Adobe Illustrator 24.2.0, SVG Export Plug-In . SVG Version: 6.00 Build 0)  -->
<svg version="1.1" id="Ebene_1" xmlns="http://www.w3.org/2000/svg" xmlns:xlink="http://www.w3.org/1999/xlink" x="0px" y="0px"
	 viewBox="0 0 237.32 282.62" style="enable-background:new 0 0 237.32 282.62;" xml:space="preserve">
<style type="text/css">
	.st0{fill:none;stroke:#000000;stroke-width:0.7769;stroke-miterlimit:2.6131;}
	.st1{fill:none;}
	.st2{fill:#FFFFFF;}
</style>
<g>
	<path class="st0" d="M2.5,2.13"/>
	<path class="st0" d="M2.5,2.13"/>
	<line class="st0" x1="2.5" y1="2.13" x2="2.5" y2="2.13"/>
	<rect x="2.5" y="2.13" class="st1" width="232.14" height="262.53"/>
	<g>
		<path class="st2" d="M2.5,1.85l0.09,131.39h232.29V1.85H2.5z M89.71,132.87C84.33,88.23,4.15,101.36,2.95,2.77L2.59,2.1
			l76.82-0.17c2.32,74.96,82.54,50.21,86.75,130.92L89.71,132.87z"/>
	</g>
</g>
<path class="st2" d="M180.28,264.24l-3.91,0c-5.38-44.65-85.56-31.51-86.76-130.11l-0.36-0.67l76.82-0.17
	c1.53,49.42,36.92,55.5,62.07,77.04C228.13,210.34,216.61,242.05,180.28,264.24z"/>
<path class="st2" d="M119.68,282.62c-32.16,0-62.36-12.54-85.05-35.32C12.51,225.11-0.11,195.02,0,164.76V0.01L237.32,0
	l-0.05,164.84c-0.11,46.35-22.65,74.38-41.55,89.73C174.11,272.13,145.69,282.62,119.68,282.62z M3,3.01v161.75
	c-0.11,29.47,12.19,58.79,33.75,80.42c22.12,22.21,51.57,34.44,82.93,34.44c24.96-0.01,53.38-10.5,74.15-27.38
	c18.39-14.94,40.34-42.24,40.44-87.41L234.32,3L3,3.01z"/>
</svg>
