<?xml version="1.0" encoding="utf-8"?>
<!-- Generator: Adobe Illustrator 24.2.0, SVG Export Plug-In . SVG Version: 6.00 Build 0)  -->
<svg version="1.1" id="Ebene_1" xmlns="http://www.w3.org/2000/svg" xmlns:xlink="http://www.w3.org/1999/xlink" x="0px" y="0px"
	 viewBox="0 0 205 109" style="enable-background:new 0 0 205 109;" xml:space="preserve">
<style type="text/css">
	.st0{fill:#FFFFFF;}
</style>
<g id="Gruppe_147" transform="translate(0 -129.905)">
	<g id="Gruppe_145" transform="translate(0 135.287)">
		<path id="Pfad_85" class="st0" d="M24.35,29.88l4.56,17.46c0.99,3.83,1.91,7.38,2.55,10.93h0.18c0.78-3.48,1.91-7.17,3.04-10.86
			l5.61-17.52h5.26l5.33,17.17c1.27,4.11,2.27,7.73,3.04,11.19h0.22c0.67-3.76,1.55-7.48,2.64-11.14l4.89-17.24h6.18L56.78,64.21
			H51.1l-5.25-16.37c-1.21-3.7-2.22-7.47-3.04-11.28h-0.15c-0.82,3.84-1.86,7.63-3.12,11.35l-5.54,16.32h-5.67L17.96,29.88H24.35z"
			/>
		<path id="Pfad_86" class="st0" d="M77.39,29.88l4.56,17.46c0.99,3.83,1.91,7.38,2.55,10.93h0.22c0.78-3.48,1.91-7.17,3.04-10.86
			l5.61-17.52h5.24l5.33,17.17c1.27,4.11,2.27,7.73,3.04,11.19h0.22c0.67-3.76,1.55-7.48,2.64-11.14l4.89-17.24h6.18l-11.07,34.34
			h-5.68L98.9,47.82c-1.21-3.7-2.22-7.47-3.04-11.28h-0.14c-0.82,3.84-1.86,7.63-3.12,11.35l-5.54,16.32h-5.67L71.02,29.88h6.38l0,0
			L77.39,29.88z"/>
		<path id="Pfad_87" class="st0" d="M130.45,29.88l4.53,17.46c0.99,3.83,1.91,7.38,2.55,10.93h0.22c0.78-3.48,1.93-7.17,3.06-10.86
			l5.6-17.52h5.24l5.33,17.17c1.27,4.11,2.27,7.73,3.04,11.19h0.22c0.67-3.76,1.54-7.48,2.62-11.14l4.9-17.24h6.16l-11.07,34.34
			h-5.67l-5.26-16.39c-1.21-3.7-2.22-7.47-3.04-11.28h-0.14c-0.82,3.84-1.87,7.63-3.13,11.35l-5.53,16.32h-5.68l-10.37-34.34h6.39
			l0,0L130.45,29.88z"/>
	</g>
	<g id="Gruppe_146" transform="translate(24.837 129.905)">
		<path id="Pfad_88" class="st0" d="M126.34,81.45c-10.97-0.02-21.28-5.27-27.73-14.14l3.05-2.22c9.88,13.63,28.94,16.66,42.56,6.78
			c13.63-9.88,16.66-28.94,6.78-42.56c-9.88-13.63-28.94-16.66-42.56-6.78c-3.75,2.72-6.83,6.26-9.01,10.34l-3.32-1.78
			c8.9-16.69,29.64-23.02,46.34-14.12c16.69,8.9,23.02,29.64,14.12,46.34C150.62,74.48,139,81.45,126.34,81.45L126.34,81.45z"/>
		<path id="Pfad_89" class="st0" d="M160.98,100.92l-18.66-25.36l4.18-3.12l18.66,25.36L160.98,100.92z"/>
	</g>
</g>
</svg>
